<svg width="512" height="512" viewBox="0 0 512 512" fill="none" xmlns="http://www.w3.org/2000/svg">
  <!-- Background Circle -->
  <circle cx="256" cy="256" r="256" fill="#dc2626"/>
  
  <!-- Main Utensils Icon -->
  <g transform="translate(256, 256)">
    <!-- Fork -->
    <path d="M-80 -120 L-80 -60 L-60 -60 L-60 -120 M-100 -120 L-100 -60 L-80 -60 L-80 -120 M-120 -120 L-120 -60 L-100 -60 L-100 -120 M-100 -60 L-100 120 L-80 120 L-80 -60" 
          fill="white" stroke="white" stroke-width="4" stroke-linecap="round"/>
    
    <!-- Knife -->
    <path d="M40 -120 L60 -120 L60 -80 L80 -80 L80 120 L60 120 L60 -80 L40 -80 Z" 
          fill="white" stroke="white" stroke-width="2"/>
    
    <!-- Spoon -->
    <ellipse cx="0" cy="-90" rx="20" ry="30" fill="white"/>
    <rect x="-10" y="-60" width="20" height="180" fill="white" rx="10"/>
  </g>
  
  <!-- Heart accent -->
  <path d="M256 180 C240 160, 200 160, 200 200 C200 240, 256 280, 256 280 C256 280, 312 240, 312 200 C312 160, 272 160, 256 180 Z" 
        fill="white" opacity="0.9"/>
</svg>